<?xml version="1.0" encoding="iso-8859-1"?>
<!-- Generator: Adobe Illustrator 18.1.1, SVG Export Plug-In . SVG Version: 6.00 Build 0)  -->
<svg version="1.1" id="Capa_1" xmlns="http://www.w3.org/2000/svg" xmlns:xlink="http://www.w3.org/1999/xlink" x="0px" y="0px"
	 viewBox="0 0 249.397 249.397" style="enable-background:new 0 0 249.397 249.397;" xml:space="preserve">
<g>
	<g>
		<g>
			<g>
				<path style="fill:#010002;" d="M158.241,58.764H84.134c-3.002,0-5.439-2.437-5.439-5.439c0-3.002,2.437-5.439,5.439-5.439
					h74.107c3.002,0,5.439,2.437,5.439,5.439C163.68,56.327,161.244,58.764,158.241,58.764z"/>
			</g>
		</g>
		<g>
			<g>
				<path style="fill:#010002;" d="M158.241,104.816H84.134c-3.002,0-5.439-2.431-5.439-5.439c0-3.002,2.437-5.439,5.439-5.439
					h74.107c3.002,0,5.439,2.437,5.439,5.439C163.68,102.385,161.244,104.816,158.241,104.816z"/>
			</g>
		</g>
		<g>
			<g>
				<path style="fill:#010002;" d="M158.241,143.129H84.134c-3.002,0-5.439-2.437-5.439-5.439s2.437-5.439,5.439-5.439h74.107
					c3.002,0,5.439,2.437,5.439,5.439S161.244,143.129,158.241,143.129z"/>
			</g>
		</g>
		<g>
			<path style="fill:#010002;" d="M228.949,249.397l-104.251-52.193L20.448,249.397V0h208.496v249.397H228.949z M31.332,10.878
				v216.556l93.372-43.899l93.372,43.899V10.878H31.332z"/>
		</g>
	</g>
</g>
<g>
</g>
<g>
</g>
<g>
</g>
<g>
</g>
<g>
</g>
<g>
</g>
<g>
</g>
<g>
</g>
<g>
</g>
<g>
</g>
<g>
</g>
<g>
</g>
<g>
</g>
<g>
</g>
<g>
</g>
</svg>
